<svg xmlns="http://www.w3.org/2000/svg" width="250" height="250" viewBox="0 0 250 250" fill="none">
<path d="M 190.16,31.49 C 187.91,29.88 184.51,32.19 185.88,35.16 C 186.31,36.11 187.08,36.54 187.71,37.01 C 218.75,59.86 237.63,92.71 237.63,128.82 C 237.63,175.99 205.12,218.56 153.82,234.69 C 149.89,235.93 150.91,241.71 154.91,240.66 C 205.98,226.96 243.01,181.94 243,128.45 C 242.99,90.87 223.47,56.18 190.16,31.49 Z" fill="currentColor"/>
<path d="M 125.19,243.91 C 138.08,243.91 147.18,236.44 151.21,225.01 C 193.72,217.79 226.98,184.02 226.98,140.81 C 226.98,121.17 219.82,103.78 209.93,87.04 C 191.42,55.45 165.15,34.72 117.71,28.65 C 112.91,28.04 113.77,34.35 117.19,34.82 C 161.67,39.33 185.84,56.71 203.76,86.42 C 213.87,103.68 220.68,119.61 220.68,140.81 C 220.68,179.96 190.81,211.95 148.71,219.16 C 147.11,219.47 146.27,220.32 145.92,221.8 C 142.95,231.11 135.72,238.02 125.19,237.66 C 64.48,237.66 11.67,191.61 11.67,127.51 C 11.67,79.61 44.82,36.38 93.89,27.77 L 94.11,27.73 L 94.38,26.64 C 97.04,16.61 104.57,11.82 114.19,11.82 C 134.12,13.36 152.91,18.15 170.48,26.08 C 171.92,26.78 173.81,27.09 174.76,25.59 C 176.05,23.72 175.31,21.07 173.01,20.34 C 154.78,11.96 137.21,7.17 114.47,6 H 113.52 C 101.91,6 93.46,12.16 89.49,21.78 C 42.36,31.26 6.17,74.76 6.17,128.08 C 6.17,190.05 57.92,243.91 125.19,243.91 Z" fill="currentColor"/>
<path d="M 93.67,40.64 C 100.51,52.07 109.54,51.33 114.05,52.17 C 128.72,53.91 141.48,55.78 157.38,62.16 C 162.72,64.47 162.29,58.19 159.18,57.01 C 145.11,51.33 132.48,49.79 111.31,47.48 C 101.83,46.29 95.45,41.18 93.75,32.81 C 55.21,39.46 22.06,72.17 22.06,112.48 C 22.06,131.98 30.36,149.82 43.26,164.49 C 46.23,167.59 50.19,164.13 48.32,161.02 C 36.21,145.54 28.42,129.78 28.42,112.4 C 28.42,79.11 54.91,48.36 89.91,40.36 C 90.76,40.15 91.04,39.87 91.62,40.01 C 92.62,40.01 93.04,39.65 93.67,40.64 Z" fill="currentColor"/>
<path d="M 152.72,82.77 C 126.61,82.77 113.07,99.44 103.01,119.33 C 100.56,123.36 103.74,125.03 105.61,123.92 C 107.15,123.22 107.89,121.05 108.73,119.61 C 118.22,102.16 130.33,88.56 152.72,88.56 C 181.62,88.56 201.91,116.01 201.91,147.31 C 201.91,175.12 183.47,199.96 152.51,205.75 C 151.84,205.96 151.63,206.03 151.56,205.54 C 147.74,195.37 139.36,188.15 128.07,186.48 C 113.2,184.24 101.23,182.36 83.8,176.81 C 79.3,175.48 77.91,182.36 82.41,183.09 C 97.21,187.46 108.09,189.47 126.25,192.65 C 136.78,194.31 145.41,201.71 147.11,210.95 C 147.74,213.05 149.13,213.41 150.15,213.26 C 183.75,208.61 208.26,180.93 208.26,147.24 C 208.26,115.06 186.94,82.77 152.72,82.77 Z" fill="currentColor"/>
<path d="M 129.77,105.21 C 122.93,112.05 118.97,122.73 113.77,130.41 C 111.31,133.45 114.56,136.63 117.46,134.46 C 123.75,126.23 127.43,115.62 135.15,108.71 C 138.22,105.81 134.73,101.09 129.77,105.21 Z" fill="currentColor"/>
<path d="M 136.78,120.31 C 127.71,136.71 120.12,154.91 93.74,154.91 C 66.07,154.91 47.76,128.53 47.76,104.78 C 47.76,84.47 58.57,66.08 77.66,56.25 C 82.23,54.21 79.85,47.76 75.34,49.93 C 54.77,59.72 42.01,80.11 42.01,104.71 C 42.01,131.77 61.86,161.31 93.67,161.31 C 114.77,161.31 128.91,147.24 139.86,124.06 C 142.76,120.45 139.15,117.73 136.78,120.31 Z" fill="currentColor"/>
<path d="M 30.73,154.7 C 27.76,152.97 23.87,155.93 25.41,158.76 C 41.73,188.36 68.94,199.79 105.75,206.41 C 112.25,207.66 122.07,208.75 123.46,209.03 C 128.07,209.95 128.07,220.18 121.78,220.18 C 107.64,218.94 92.06,215.98 76.23,211.33 C 72.13,210.24 71.04,216.69 75.27,217.64 C 90.41,222.22 103.95,224.74 120.47,226.54 C 133.73,226.54 136.56,209.03 126.03,203.38 C 123.75,202.13 122.73,202.56 112.04,200.76 C 78.09,195.04 54.06,188.98 32.12,155.65 C 31.77,155.23 31.28,154.91 30.73,154.7 Z" fill="currentColor"/>
</svg>